<?xml version="1.0" standalone="yes"?>
<svg xmlns="http://www.w3.org/2000/svg" width="500" height="500">
<path style="fill:#010101; stroke:none;" d="M0 0L0 500L500 500L500 0L0 0z"/>
<path style="fill:#115971; stroke:none;" d="M314 109L314 110L320 110L314 109M311 110L310 112L311 110z"/>
<path style="fill:#289174; stroke:none;" d="M305 150L305 261C297.036 253.228 278.721 249.65 281.218 267C281.941 272.027 285.491 274.836 288.914 278.166C296.314 285.364 306.493 301.847 317.999 300.89C334.09 299.553 329 271.912 329 261L329 150C329 140.099 333.053 118.51 323.811 111.894C312.233 103.604 299.913 121.087 293 128C271.438 149.562 248.645 170.407 228.17 193C221.604 200.245 206.724 211.329 217.228 221.772C226.762 231.251 237.717 217.283 244 211L305 150z"/>
<path style="fill:#115971; stroke:none;" d="M322 110L323 111L322 110M323.667 111.333L324.333 111.667L323.667 111.333M308 112L309 113L308 112M325 112L326 113L325 112M307 113L308 114L307 113M306 114L307 115L306 114M326 114L327 115L326 114M305 115L306 116L305 115M327 115L328 116L327 115M304 116L305 117L304 116M303 117L304 118L303 117M328 117L328 120L329 120L328 117M302 118L303 119L302 118M301 119L302 120L301 119M300 120L301 121L300 120M299 121L300 122L299 121M298 122L299 123L298 122M297 123L298 124L297 123M296 124L297 125L296 124M295 125L296 126L295 125M294 126L295 127L294 126M293 127L294 128L293 127M292 128L293 129L292 128M291 129L292 130L291 129M290 130L291 131L290 130M289 131L290 132L289 131M288 132L289 133L288 132M287 133L288 134L287 133M286 134L287 135L286 134M179.667 135.333L180.333 135.667L179.667 135.333z"/>
<path style="fill:#f39221; stroke:none;" d="M172 312L173 312C178.018 302.327 190.421 297.013 194.432 287C197.934 278.257 195 263.425 195 254C195 229.079 199.037 200.462 195 176C203.078 181.5 223.604 187.515 219.602 169C217.377 158.707 202.384 148.001 195 141.043C191.917 138.138 188.459 135.255 184 135.199C166.797 134.982 172 165.266 172 176L172 312z"/>
<path style="fill:#115971; stroke:none;" d="M187 135L188 136L187 135M285 135L286 136L285 135z"/>
<path style="fill:#d92228; stroke:none;" d="M189 136L190 137L189 136z"/>
<path style="fill:#115971; stroke:none;" d="M284 136L285 137L284 136z"/>
<path style="fill:#d92228; stroke:none;" d="M176 137L177 138L176 137z"/>
<path style="fill:#115971; stroke:none;" d="M283 137L284 138L283 137M175 138L176 139L175 138z"/>
<path style="fill:#d92228; stroke:none;" d="M192 138L193 139L192 138z"/>
<path style="fill:#115971; stroke:none;" d="M282 138L283 139L282 138M174 139L175 140L174 139z"/>
<path style="fill:#d92228; stroke:none;" d="M193 139L194 140L193 139z"/>
<path style="fill:#115971; stroke:none;" d="M281 139L282 140L281 139M194 140L195 141L194 140M280 140L281 141L280 140z"/>
<path style="fill:#d92228; stroke:none;" d="M173 141L174 142L173 141z"/>
<path style="fill:#115971; stroke:none;" d="M195 141L196 142L195 141M279 141L280 142L279 141M196 142L197 143L196 142M278 142L279 143L278 142M172 143L173 144L172 143M197 143L198 144L197 143M277 143L278 144L277 143z"/>
<path style="fill:#d92228; stroke:none;" d="M172 144L173 145L172 144z"/>
<path style="fill:#115971; stroke:none;" d="M198 144L199 145L198 144M276 144L277 145L276 144M199 145L200 146L199 145M275 145L276 146L275 145M200 146L201 147L200 146M274 146L275 147L274 146M201 147L202 148L201 147M273 147L274 148L273 147M202 148L203 149L202 148M272 148L273 149L272 148M203 149L204 150L203 149M271 149L272 150L271 149M204 150L205 151L204 150M270 150L271 151L270 150M304 150L305 151L304 150M205 151L206 152L205 151M269 151L270 152L269 151M303 151L304 152L303 151M206 152L207 153L206 152M268 152L269 153L268 152M302 152L303 153L302 152M207 153L208 154L207 153M267 153L268 154L267 153M208 154L209 155L208 154M266 154L267 155L266 154M209 155L210 156L209 155M265 155L266 156L265 155z"/>
<path style="fill:#d92228; stroke:none;" d="M210 156L211 157L210 156z"/>
<path style="fill:#115971; stroke:none;" d="M264 156L265 157L264 156z"/>
<path style="fill:#d92228; stroke:none;" d="M211 157L212 158L211 157z"/>
<path style="fill:#115971; stroke:none;" d="M263 157L264 158L263 157M212 158L213 159L212 158M262 158L263 159L262 158M213 159L214 160L213 159M261 159L262 160L261 159M295 159L296 160L295 159z"/>
<path style="fill:#d92228; stroke:none;" d="M214 160L215 161L214 160z"/>
<path style="fill:#115971; stroke:none;" d="M260 160L261 161L260 160M294 160L295 161L294 160M215 161L216 162L215 161M259 161L260 162L259 161M293 161L294 162L293 161M216 162L217 163L216 162M258 162L259 163L258 162M217 163L218 164L217 163M257 163L258 164L257 163M256 164L257 165L256 164z"/>
<path style="fill:#d92228; stroke:none;" d="M218 165L219 166L218 165z"/>
<path style="fill:#115971; stroke:none;" d="M255 165L256 166L255 165M289 165L290 166L289 165M254 166L255 167L254 166M288 166L289 167L288 166z"/>
<path style="fill:#d92228; stroke:none;" d="M219 167L220 168L219 167z"/>
<path style="fill:#115971; stroke:none;" d="M253 167L254 168L253 167M287 167L288 168L287 167M252 168L253 169L252 168M286 168L287 169L286 168M251 169L252 170L251 169M285 169L286 170L285 169M220 170L220 173L221 173L220 170M250 170L251 171L250 170M249 171L250 172L249 171M248 172L249 173L248 172M282 172L283 173L282 172M247 173L248 174L247 173M281 173L282 174L281 173M246 174L247 175L246 174M280 174L281 175L280 174z"/>
<path style="fill:#d92228; stroke:none;" d="M219 175L220 176L219 175z"/>
<path style="fill:#115971; stroke:none;" d="M245 175L246 176L245 175M279 175L280 176L279 175z"/>
<path style="fill:#d92228; stroke:none;" d="M195 176L195 179L196 179L197 176L195 176z"/>
<path style="fill:#115971; stroke:none;" d="M219 176L220 177L219 176M244 176L245 177L244 176M278 176L279 177L278 176z"/>
<path style="fill:#d92228; stroke:none;" d="M197 177L198 178L197 177M218 177L219 178L218 177z"/>
<path style="fill:#115971; stroke:none;" d="M243 177L244 178L243 177M277 177L278 178L277 177M198 178L199 179L198 178M199 179L200 180L199 179M217 179L218 180L217 179M241 179L242 180L241 179M240 180L241 181L240 180M274 180L275 181L274 180z"/>
<path style="fill:#d92228; stroke:none;" d="M202 181L203 182L202 181M214 181L215 182L214 181z"/>
<path style="fill:#115971; stroke:none;" d="M239 181L240 182L239 181M273 181L274 182L273 181z"/>
<path style="fill:#d92228; stroke:none;" d="M195 182L195 188L196 188L195 182M204 182L205 183L204 182M212 182L213 183L212 182z"/>
<path style="fill:#115971; stroke:none;" d="M238 182L239 183L238 182M272 182L273 183L272 182z"/>
<path style="fill:#d92228; stroke:none;" d="M207.667 183.333L208.333 183.667L207.667 183.333z"/>
<path style="fill:#115971; stroke:none;" d="M209 183L210 184L209 183M271 183L272 184L271 183M236 184L237 185L236 184M270 184L271 185L270 184M269 185L270 186L269 185M268 186L269 187L268 186M267 187L268 188L267 187M266 188L267 189L266 188M265 189L266 190L265 189z"/>
<path style="fill:#d92228; stroke:none;" d="M195 190L195 281L196 281L196 218L195 190z"/>
<path style="fill:#115971; stroke:none;" d="M264 190L265 191L264 190M263 191L264 192L263 191M262 192L263 193L262 192M261 193L262 194L261 193M260 194L261 195L260 194M259 195L260 196L259 195M225 196L226 197L225 196M258 196L259 197L258 196M224 197L225 198L224 197M257 197L258 198L257 197M223 198L224 199L223 198M256 198L257 199L256 198M222 199L223 200L222 199M255 199L256 200L255 199M221 200L222 201L221 200M254 200L255 201L254 200M253 201L254 202L253 201M252 202L253 203L252 202M251 203L252 204L251 203M250 204L251 205L250 204M216 205L217 206L216 205M249 205L250 206L249 205M215 206L216 207L215 206M248 206L249 207L248 206M214.333 207.667L214.667 208.333L214.333 207.667M247 207L248 208L247 207M246 208L247 209L246 208M245 209L246 210L245 209M213.333 210.667L213.667 211.333L213.333 210.667M244 210L245 211L244 210M243 211L244 212L243 211z"/>
<path style="fill:#d92228; stroke:none;" d="M196 286L196 282C190.808 293.149 173.791 301.796 172.229 314C170.077 330.818 189.291 327.464 197 319.985C216.454 301.11 234.834 281.166 254 262C264.062 251.938 277.436 241.879 285.297 230C291.058 221.295 284.046 208.33 273 211.657C264.133 214.327 256.347 225.653 250 232L229 253L196 286z"/>
<path style="fill:#115971; stroke:none;" d="M242 212L243 213L242 212M241 213L242 214L241 213M213 214L213 218L214 218L213 214M240 214L241 215L240 214M239 215L240 216L239 215M238 216L239 217L238 216M237 217L238 218L237 217M214.333 218.667L214.667 219.333L214.333 218.667M236 218L237 219L236 218M235 219L236 220L235 219M215 220L216 221L215 220M234 220L235 221L234 220M216 221L217 222L216 221M233 221L234 222L233 221M217 222L218 223L217 222M232 222L233 223L232 222M218 223L219 224L218 223M230.667 223.333L231.333 223.667L230.667 223.333M220 224L221 225L220 224M228 224L229 225L228 224M288.667 253.333L289.333 253.667L288.667 253.333M294.667 253.333L295.333 253.667L294.667 253.333M286 254L287 255L286 254M297 254L298 255L297 254M285 255L286 256L285 255M299 255L300 256L299 255M300 256L301 257L300 256M283 257L284 258L283 257M301 257L302 258L301 257M282 258L283 259L282 258M302 258L303 259L302 258M281.333 259.667L281.667 260.333L281.333 259.667M303 259L305 261L305 259L303 259M280 262L280 268L281 268L280 262M281.333 269.667L281.667 270.333L281.333 269.667M282 271L283 272L282 271M287 276L288 277L287 276M288 277L289 278L288 277M289 278L290 279L289 278M290 279L291 280L290 279M291 280L292 281L291 280M295 284L296 285L295 284M296 285L297 286L296 285M297 286L298 287L297 286M298 287L299 288L298 287M299 288L300 289L299 288M328.333 291.667L328.667 292.333L328.333 291.667M303 292L304 293L303 292M304 293L305 294L304 293M305 295L306 296L305 295M327 295L328 296L327 295M306 296L307 297L306 296M326 296L327 297L326 296M307 297L308 298L307 297M325 297L326 298L325 297M310 299L311 300L310 299M323 299L324 300L323 299M311 300L312 301L311 300M321 300L322 301L321 300M314 301L314 302L319 302L314 301M267 370L249 371L249 379L256 379C250.323 384.001 240.865 384.77 239.387 374.985C237.11 359.905 252.242 366.629 259 368.431C261.269 369.035 265.256 369.46 266.302 366.682C269.086 359.29 256.033 354.91 251 354.211C231.942 351.562 218.225 377.066 235.043 389.347C249.208 399.691 272.412 388.315 267 370M99 355C97.6684 360.593 98 366.282 98 372C98 376.513 96.1049 386.706 99.0278 390.397C101.367 393.35 108.685 392.001 112 392C119.251 391.997 127.494 391.622 132.772 385.892C141.62 376.287 136.351 359.78 124 356.558C116.329 354.557 106.963 355.764 99 355M182 355C180.583 362.329 190.094 385.157 195.699 390.397C199.249 393.715 208.242 392.588 211.006 388.852C215.821 382.344 218.595 372.471 221.715 365C222.614 362.848 224.666 359.005 222.932 356.781C220.925 354.205 214.089 355.309 212.225 357.529C207.679 362.939 205.405 373.37 203 380C195.532 367.984 197.542 357.887 182 355M285 356C269.615 353.678 270.018 379.255 278.225 387.867C296.948 407.513 321.955 377.345 311.397 357.469C309.864 354.583 303.584 354.647 301.938 357.372C298.262 363.457 303.588 372.535 299.972 378.706C292.188 391.989 285 375.521 285 368L285 356M331 379C344.579 379.01 345.347 391.999 359 392L351 375C357.868 371.612 358.913 362.823 352.035 358.498C345.618 354.464 339.054 356.236 332 355.961C328.962 355.843 323.358 354.05 321.028 356.793C317.977 360.384 320 371.483 320 376C320 379.631 318.4 388.437 321.603 390.972C330.485 398.001 331 383.639 331 379M367.032 356.179C363.439 358.704 365 367.216 365 371C365.001 387.781 380.804 401.183 396.956 389.347C404.834 383.575 403.058 372.556 402.999 364C402.964 358.893 400.846 352.758 394.303 355.869C385.993 359.819 399.266 383.273 383.92 383.273C372.527 383.273 377.038 365.807 375.852 359.113C375.214 355.512 369.976 354.11 367.032 356.179M154 378C158.166 378 166.989 379.673 170.397 376.972C172.77 375.092 172.428 369.955 169.682 368.603C165.778 366.682 159.021 368.043 155 369L154 365C163.963 365 177.954 369.045 178 356C169.386 356 153.045 352.801 145.318 356.603C142.626 357.928 143.018 361.484 143.001 364C142.964 369.354 140.18 387.469 144.603 390.972C146.689 392.624 150.531 391.999 153 392C158.243 392.002 179.851 395.276 177.663 386.104C175.199 375.776 156.785 388.201 154 378z"/>
<path style="fill:#010101; stroke:none;" d="M109 364L109 384C113.244 383.655 118.279 384.079 121.892 381.41C135.311 371.498 117.706 364.001 109 364M331 364L331 370C336.937 370.016 342.874 372.18 346 366L331 364z"/>
</svg>
