<svg xmlns="http://www.w3.org/2000/svg" xmlns:xlink="http://www.w3.org/1999/xlink" id="Layer_1" x="0" y="0" version="1.1" viewBox="0 0 504.123 504.123" style="enable-background:new 0 0 504.123 504.123" xml:space="preserve"><linearGradient id="SVGID_1_" x1="-29.529" x2="-10.746" y1="610.139" y2="585.035" gradientTransform="matrix(7.8769 0 0 -7.8769 364.0537 4969.6694)" gradientUnits="userSpaceOnUse"><stop offset=".012" style="stop-color:#e0b386"/><stop offset=".519" style="stop-color:#da498c"/><stop offset="1" style="stop-color:#961484"/></linearGradient><polygon style="fill:url(#SVGID_1_)" points="233.472 504.123 288.122 504.123 384.874 336.526 288.122 168.913 233.48 168.913 330.232 336.526"/><linearGradient id="SVGID_2_" x1="-13.573" x2="13.357" y1="565.892" y2="613.434" gradientTransform="matrix(7.8769 0 0 -7.8769 364.0537 4969.6694)" gradientUnits="userSpaceOnUse"><stop offset=".012" style="stop-color:#e0b386"/><stop offset=".519" style="stop-color:#da498c"/><stop offset="1" style="stop-color:#961484"/></linearGradient><polyline style="fill:url(#SVGID_2_)" points="330.232 336.526 233.472 504.123 288.122 504.123 384.874 336.526"/><linearGradient id="SVGID_3_" x1="-4.94" x2="-10.347" y1="570.355" y2="589.555" gradientTransform="matrix(7.8769 0 0 -7.8769 364.0537 4969.6694)" gradientUnits="userSpaceOnUse"><stop offset=".012" style="stop-color:#e0b386"/><stop offset=".519" style="stop-color:#da498c"/><stop offset="1" style="stop-color:#961484"/></linearGradient><polyline style="fill:url(#SVGID_3_)" points="233.472 504.123 288.122 504.123 384.874 336.526"/><linearGradient id="SVGID_4_" x1="-13.506" x2="-21.266" y1="643.796" y2="600.135" gradientTransform="matrix(7.8769 0 0 -7.8769 364.0537 4969.6694)" gradientUnits="userSpaceOnUse"><stop offset="0" style="stop-color:#29d3da"/><stop offset=".519" style="stop-color:#07f"/><stop offset=".999" style="stop-color:#064093"/><stop offset="1" style="stop-color:#084698"/></linearGradient><polygon style="fill:url(#SVGID_4_)" points="216.001 335.218 270.659 335.21 173.891 167.613 270.659 0 216.001 0 119.249 167.613"/><linearGradient id="SVGID_5_" x1="-18.568" x2="-36.079" y1="592.355" y2="632.471" gradientTransform="matrix(7.8769 0 0 -7.8769 364.0537 4969.6694)" gradientUnits="userSpaceOnUse"><stop offset="0" style="stop-color:#29d3da"/><stop offset=".519" style="stop-color:#07f"/><stop offset=".999" style="stop-color:#064093"/><stop offset="1" style="stop-color:#084698"/></linearGradient><polyline style="fill:url(#SVGID_5_)" points="119.249 167.613 216.001 335.218 270.659 335.21 173.891 167.613"/><linearGradient id="SVGID_6_" x1="-22.847" x2="-3.066" y1="597.612" y2="617.477" gradientTransform="matrix(7.8769 0 0 -7.8769 364.0537 4969.6694)" gradientUnits="userSpaceOnUse"><stop offset="0" style="stop-color:#29d3da"/><stop offset=".519" style="stop-color:#07f"/><stop offset=".999" style="stop-color:#064093"/><stop offset="1" style="stop-color:#084698"/></linearGradient><polyline style="fill:url(#SVGID_6_)" points="119.249 167.613 216.001 335.218 270.659 335.21"/></svg>